PathFileType	4	(X/Y/Z)	45_1_12_p1_0-228_filt_butterworth.trc
DataRate	CameraRate	NumFrames	NumMarkers	Units	OrigDataRate	OrigDataStartFrame	OrigNumFrames
60.0	60.0	5	27	m	60.0	199	228
Frame#	Time	RHip			RKnee			RAnkle			RBigToe			RSmallToe			RHeel			LHip			LKnee			LAnkle			LBigToe			LSmallToe			LHeel			Neck			Head			Nose			RShoulder			RElbow			RWrist			RThumb			RIndex			RPinky			LShoulder			LElbow			LWrist			LThumb			LIndex			LPinky			
		X1	Y1	Z1	X2	Y2	Z2	X3	Y3	Z3	X4	Y4	Z4	X5	Y5	Z5	X6	Y6	Z6	X7	Y7	Z7	X8	Y8	Z8	X9	Y9	Z9	X10	Y10	Z10	X11	Y11	Z11	X12	Y12	Z12	X13	Y13	Z13	X14	Y14	Z14	X15	Y15	Z15	X16	Y16	Z16	X17	Y17	Z17	X18	Y18	Z18	X19	Y19	Z19	X20	Y20	Z20	X21	Y21	Z21	X22	Y22	Z22	X23	Y23	Z23	X24	Y24	Z24	X25	Y25	Z25	X26	Y26	Z26	X27	Y27	Z27	
199	3.316666666666667	0.5583855239393504	0.4850740676206585	0.9140913962069678	0.5876357603543974	0.634832601187009	1.3189453866607304	0.6029479711238186	0.8306212535947599	1.677003807302757	0.5830593222683838	0.6580491671539436	1.7470653394201285	0.6471589794945891	0.7027264493390676	1.7429213479948555	0.5871537221633745	0.9561753222217424	1.7276539450458763	0.3563300864167805	0.4652830513866837	0.9378560600107847	0.37212140309457675	0.6578323866246087	1.3242405653821183	0.40342752443122754	0.8158140133710547	1.6959106476986414	0.42876917011842997	0.6632989480076386	1.7609373752825574	0.37849043431517343	0.71802182406361	1.767486861013726	0.4167548491675638	0.8921801118632897	1.7419081504517289	0.40413132431193954	0.24762114791468487	0.4500060145089677	0.3645889904711879	0.1199776762681739	0.23475320610505582	0.38426586782766675	0.11951015758332541	0.36829564767162526	0.556726278888064	0.2954760889589685	0.5193135922144824	0.631417891689165	0.3520002698201782	0.7659515667957147	0.5233780914573256	0.2730326764956088	0.9580067976692721	0.42646628114893087	0.27723849759568	1.0597039608386374	0.4334597665425265	0.30883733603645036	1.074868269356087	0.4750099793579545	0.3154075009253809	1.0719710512657257	0.25497762864968343	0.29099483918816577	0.5382323622007278	0.27353016515659356	0.3469110776450448	0.7735422301274036	0.42017224646624257	0.28186260333592517	0.9686135351299568	0.4639979661464619	0.30695316439281045	1.0513777195165614	0.4625652851267553	0.3287233698651745	1.0708662017639332	0.4502743045724528	0.32215686827115225	1.063407422718793
200	3.333333333333333	0.5588775834784826	0.48840743053303287	0.9138118325511495	0.5871523086158944	0.6334663940082326	1.3187459700936344	0.6025822942688973	0.8310154218026804	1.6793490825751778	0.5839758874909864	0.6613828791136993	1.748519691559499	0.6471072827453856	0.7028086591073519	1.7429800678121539	0.5874418396403621	0.9602721819258201	1.7291647905617564	0.35584657317084906	0.46891943842604444	0.938576587918967	0.3709911622572123	0.6528671131480104	1.3221446349606771	0.4036591232101069	0.8165562953056422	1.696046191837063	0.42806801945479095	0.6627874245219355	1.7609226843673311	0.37848933579288024	0.7179598970596556	1.767485713407462	0.4167528662898423	0.8922363609717469	1.741956439334257	0.4043831340823308	0.24834221923558863	0.4510300713883102	0.36502127379184357	0.11996634758520235	0.23508183631398402	0.38577104225747194	0.11573707373296645	0.36906082761138875	0.5573170307654159	0.29625118661749406	0.519967728486492	0.6315098038871432	0.3520430813956499	0.7650992275203361	0.5232946556169942	0.2729546733913041	0.9574683578107043	0.429052541044816	0.28381664791646644	1.0597540296319503	0.43709212485401244	0.3213488359147165	1.0747383165310045	0.47433701716454635	0.321142037236353	1.0699904786819163	0.2549970282881764	0.29106312910096205	0.5382561674297572	0.27529914065770766	0.3437892139312989	0.7736701645561915	0.41947898478524104	0.2825314094333253	0.9677004372722421	0.46935209135912914	0.3255843770783282	1.0494660075751099	0.4644405643101938	0.339356494912906	1.0703368114415717	0.4478101159811023	0.31522641787664263	1.0646413311600842
201	3.35	0.5592661296901227	0.4884309295603267	0.9136577492093497	0.586143457871428	0.6297460432323098	1.3186259007938248	0.6019217041992875	0.8325615604521207	1.680905904772089	0.5849580890109107	0.6648549833408598	1.7499720245791701	0.6470336240956772	0.7028252003774582	1.7430484757970846	0.5867767362290358	0.9602874779206283	1.7313762674189777	0.35556491856234895	0.470440342176255	0.9392737991301172	0.37039248221863397	0.6503545913024875	1.3204271965599113	0.40376442763431253	0.8169747424275764	1.696124720033004	0.42753351743826984	0.661350051989263	1.760706108412455	0.37848947189110427	0.7178647491719576	1.7674722744363875	0.416750765319332	0.8922150174635601	1.741968954452062	0.4050226809659532	0.24769022291015658	0.4519976273812667	0.3662472481705291	0.11994543137881275	0.2360517716634593	0.3869133509540298	0.11287221938395886	0.3696677334908984	0.5576172309321201	0.297086415904562	0.5211787150964667	0.6316883344053018	0.35176838032906554	0.764730039703149	0.5243813185019491	0.2774275166303296	0.9571120711824079	0.4315718591990118	0.2879811652753141	1.059568988846042	0.4391394243494367	0.32675113482807167	1.0746336828633412	0.47540802014387074	0.3230990196767757	1.0688391013066556	0.25499111335981595	0.2912025986404908	0.5382710340932991	0.27594171032950593	0.3428931913303474	0.7747107667313261	0.4188683708239436	0.28730981537222006	0.9689024132207873	0.4709359305488191	0.33770618873318187	1.0476760645723335	0.46477344025171624	0.34336965829668353	1.0701794762272576	0.4481107055600399	0.31431587585494203	1.0666818628550463
202	3.3666666666666667	0.5600019860175807	0.4860744113970407	0.9139937335422001	0.5849167682626337	0.6246716561862428	1.3188093725639176	0.6016039802903907	0.8346548170269528	1.6812398135864366	0.5853826729778173	0.6663454587076078	1.7507008931957522	0.6467932988473564	0.702730044693914	1.743115534567602	0.5858792777549804	0.9560669096469187	1.7330228201323128	0.3555854382896733	0.47063374555705306	0.9403098729402927	0.37028778581069355	0.6497127932255339	1.3201521505239384	0.4037824932762329	0.817010517721187	1.6961316320459172	0.42736968591091157	0.6589124504107744	1.7601036188176291	0.3784697092111187	0.7177654078850693	1.7674295291790112	0.41675264634170506	0.8920911195063655	1.7419316386954788	0.4062404255070325	0.2448129705527506	0.45280003520834267	0.36813880707925795	0.12003953951664871	0.23743377893366513	0.3873389540104796	0.1117236851443047	0.3699466257069677	0.5577656206663405	0.29764643285592673	0.5221390290872346	0.6318463841261273	0.35149688878942337	0.7645950581833381	0.5263171952332977	0.285204560650485	0.9570746573729885	0.43278767099347304	0.2875229130772643	1.0590678954654862	0.4387818783341164	0.32248168760171075	1.0745395415124046	0.4763244602711806	0.32299100443628515	1.0692625192994498	0.2549728294676052	0.29130362543590055	0.5382707959743072	0.27593546220145754	0.34348324084375026	0.7763366985775607	0.4182795371826914	0.2947288556187048	0.9714351135270214	0.4697528393167456	0.341160733792846	1.0456082081389744	0.46409551149888956	0.3436315034990501	1.0703221756150287	0.4508801044875239	0.32373342692535256	1.0680642757645737
203	3.3833333333333333	0.5613963595998397	0.48181614508332604	0.9153240200106851	0.5840641202450239	0.6207144744702524	1.3196785060708625	0.6019980444698549	0.8349233686704919	1.6807012173442701	0.5854471862833516	0.6665158442510715	1.7507370658105483	0.6463332908739566	0.7027881930864224	1.7431663603536764	0.5854338278379638	0.9510774969038742	1.7332828591698177	0.35576308033391124	0.4706347990914004	0.9417904462322453	0.3705141134969968	0.6499215449859275	1.3219523606845405	0.4037808425389531	0.8168663069204403	1.696107934073944	0.42782108750387093	0.6574585732355691	1.7597312993989733	0.37842853161287626	0.7176888387249779	1.7673587730278542	0.41676095576587424	0.891855489969426	1.7418430316279383	0.4077293385736368	0.2406642081008784	0.45347838939721763	0.3701903197940616	0.12039352451073872	0.238496481533085	0.38740910732415085	0.11171422853648276	0.36997879581411136	0.5578351019562751	0.29780285947590285	0.5225240374867152	0.631949529734291	0.3513301328529837	0.764501373661639	0.5282259879776602	0.29288041761025185	0.957387041561375	0.4326536350576867	0.2847795561117905	1.0580722340192095	0.4370739084924051	0.31373504147330855	1.0744553651316548	0.4752361594036458	0.3249417284997962	1.0708979153146185	0.2549512688868146	0.2912807888296636	0.538258320484652	0.27546661962849	0.344453950439668	0.7781641285725241	0.417451707019303	0.30043661093982504	0.9742728493081232	0.4685772828209079	0.3398673555626297	1.0433679252110164	0.46393603832418445	0.3432146554138532	1.0704892711442968	0.45390725282150296	0.3403740608152909	1.0684691275382594
